<?xml version="1.0" encoding="UTF-8" standalone="no"?>
<!DOCTYPE svg PUBLIC "-//W3C//DTD SVG 1.1//EN" "http://www.w3.org/Graphics/SVG/1.1/DTD/svg11.dtd">
<svg width="100%" height="100%" viewBox="0 0 2363 1524" version="1.1" xmlns="http://www.w3.org/2000/svg" xmlns:xlink="http://www.w3.org/1999/xlink" xml:space="preserve" xmlns:serif="http://www.serif.com/" style="fill-rule: evenodd; clip-rule: evenodd; stroke-linejoin: round; stroke-miterlimit: 2">
    <g transform="matrix(5.04587,0,0,5.04587,-8968.85,-996.349)">
        <g transform="matrix(0.754693,0,0,0.754693,1775.14,452.246)">
            <g transform="matrix(85.0677,0,0,85.0677,0,60.9347)">
                <path d="M0.352,-0.564C0.32,-0.564 0.289,-0.559 0.259,-0.549C0.229,-0.538 0.206,-0.525 0.191,-0.508L0.178,-0.54C0.176,-0.547 0.17,-0.55 0.162,-0.55L0.05,-0.55C0.041,-0.55 0.036,-0.546 0.036,-0.536L0.036,-0.015C0.036,-0.011 0.038,-0.007 0.041,-0.004C0.043,-0.001 0.047,-0 0.051,-0L0.227,-0C0.231,-0 0.234,-0.002 0.238,-0.005C0.241,-0.008 0.242,-0.011 0.242,-0.015L0.242,-0.321L0.246,-0.335C0.249,-0.346 0.256,-0.355 0.268,-0.364C0.279,-0.373 0.292,-0.377 0.308,-0.377C0.341,-0.377 0.357,-0.356 0.357,-0.314L0.357,-0.015C0.356,-0.011 0.358,-0.008 0.361,-0.005C0.364,-0.002 0.367,-0 0.371,-0L0.547,-0C0.551,-0 0.555,-0.002 0.558,-0.005C0.561,-0.008 0.562,-0.011 0.562,-0.015L0.562,-0.345C0.562,-0.42 0.545,-0.476 0.51,-0.511C0.475,-0.546 0.423,-0.564 0.352,-0.564Z" style="fill: #12354a; fill-rule: nonzero"></path>
            </g>
            <g transform="matrix(85.0677,0,0,85.0677,50.3428,60.9347)">
                <path d="M0.02,-0.274C0.02,-0.217 0.032,-0.166 0.057,-0.123C0.081,-0.079 0.116,-0.045 0.16,-0.021C0.205,0.003 0.256,0.015 0.314,0.015C0.372,0.015 0.423,0.003 0.468,-0.021C0.512,-0.045 0.546,-0.08 0.571,-0.123C0.596,-0.167 0.608,-0.218 0.608,-0.275C0.608,-0.332 0.596,-0.383 0.571,-0.426C0.546,-0.47 0.512,-0.504 0.468,-0.528C0.423,-0.552 0.372,-0.564 0.314,-0.564C0.256,-0.564 0.205,-0.552 0.161,-0.528C0.116,-0.504 0.082,-0.47 0.057,-0.426C0.032,-0.382 0.02,-0.332 0.02,-0.274ZM0.386,-0.354C0.404,-0.334 0.413,-0.308 0.413,-0.275C0.413,-0.254 0.409,-0.235 0.401,-0.218C0.392,-0.201 0.381,-0.188 0.365,-0.179C0.35,-0.17 0.333,-0.165 0.314,-0.165C0.295,-0.165 0.278,-0.17 0.262,-0.179C0.247,-0.188 0.236,-0.201 0.227,-0.217C0.219,-0.234 0.215,-0.253 0.215,-0.274C0.215,-0.296 0.219,-0.315 0.227,-0.332C0.236,-0.348 0.247,-0.361 0.262,-0.37C0.278,-0.379 0.295,-0.384 0.314,-0.384C0.343,-0.384 0.367,-0.374 0.386,-0.354Z" style="fill: #12354a; fill-rule: nonzero"></path>
            </g>
            <g transform="matrix(85.0677,0,0,85.0677,103.759,60.9347)">
                <path d="M0.287,-0.676C0.287,-0.68 0.286,-0.684 0.282,-0.687C0.279,-0.689 0.276,-0.691 0.272,-0.69L0.096,-0.673C0.086,-0.672 0.081,-0.667 0.081,-0.659L0.081,-0.55L0.024,-0.55C0.014,-0.55 0.01,-0.546 0.01,-0.535L0.01,-0.438C0.01,-0.434 0.011,-0.431 0.014,-0.428C0.017,-0.425 0.021,-0.424 0.024,-0.424L0.081,-0.424L0.081,-0.015C0.081,-0.011 0.083,-0.007 0.086,-0.004C0.089,-0.001 0.092,-0 0.096,-0L0.272,-0C0.276,-0 0.279,-0.002 0.282,-0.005C0.286,-0.008 0.287,-0.011 0.287,-0.015L0.287,-0.424L0.351,-0.424C0.36,-0.424 0.365,-0.429 0.366,-0.439L0.377,-0.536C0.377,-0.545 0.372,-0.55 0.362,-0.55L0.287,-0.55L0.287,-0.676Z" style="fill: #12354a; fill-rule: nonzero"></path>
            </g>
            <g transform="matrix(85.0677,0,0,85.0677,134.954,60.9347)">
                <path d="M0.522,-0.041C0.528,-0.046 0.531,-0.051 0.529,-0.056L0.486,-0.18C0.484,-0.186 0.481,-0.189 0.477,-0.189C0.475,-0.189 0.473,-0.189 0.471,-0.188C0.423,-0.166 0.372,-0.155 0.318,-0.155C0.293,-0.155 0.273,-0.162 0.257,-0.175C0.242,-0.189 0.234,-0.206 0.234,-0.228L0.545,-0.228C0.555,-0.228 0.56,-0.233 0.561,-0.242C0.563,-0.262 0.564,-0.282 0.564,-0.303C0.564,-0.361 0.554,-0.409 0.532,-0.448C0.511,-0.487 0.481,-0.516 0.442,-0.535C0.404,-0.554 0.359,-0.564 0.308,-0.564C0.252,-0.564 0.202,-0.552 0.158,-0.528C0.115,-0.503 0.081,-0.469 0.056,-0.425C0.032,-0.381 0.02,-0.331 0.02,-0.274C0.02,-0.217 0.032,-0.167 0.057,-0.123C0.081,-0.079 0.116,-0.045 0.159,-0.021C0.203,0.003 0.253,0.015 0.31,0.015C0.395,0.015 0.466,-0.004 0.522,-0.041ZM0.233,-0.331C0.233,-0.353 0.24,-0.37 0.253,-0.384C0.267,-0.397 0.284,-0.403 0.306,-0.403C0.327,-0.403 0.344,-0.397 0.356,-0.384C0.369,-0.37 0.375,-0.353 0.375,-0.331L0.233,-0.331Z" style="fill: #12354a; fill-rule: nonzero"></path>
            </g>
            <g transform="matrix(85.0677,0,0,85.0677,185.463,60.9347)">
                <path d="M0.242,-0.711C0.242,-0.714 0.241,-0.717 0.237,-0.721C0.234,-0.724 0.231,-0.725 0.227,-0.725L0.051,-0.725C0.047,-0.725 0.044,-0.724 0.041,-0.721C0.038,-0.717 0.036,-0.714 0.036,-0.711L0.036,-0.015C0.036,-0.011 0.038,-0.007 0.041,-0.004C0.043,-0.001 0.047,-0 0.051,-0L0.164,-0C0.171,-0 0.176,-0.005 0.18,-0.015L0.195,-0.051C0.237,-0.007 0.295,0.015 0.371,0.015C0.42,0.015 0.465,0.003 0.504,-0.021C0.543,-0.045 0.573,-0.08 0.595,-0.124C0.617,-0.167 0.628,-0.218 0.628,-0.275C0.628,-0.333 0.619,-0.384 0.6,-0.427C0.582,-0.471 0.554,-0.505 0.518,-0.528C0.481,-0.552 0.437,-0.564 0.385,-0.564C0.356,-0.564 0.329,-0.559 0.304,-0.55C0.279,-0.54 0.258,-0.527 0.242,-0.511L0.242,-0.711ZM0.321,-0.156C0.305,-0.156 0.29,-0.159 0.276,-0.167C0.261,-0.174 0.25,-0.183 0.242,-0.195L0.242,-0.353C0.251,-0.365 0.263,-0.375 0.277,-0.382C0.292,-0.389 0.306,-0.392 0.321,-0.392C0.339,-0.392 0.355,-0.387 0.369,-0.377C0.383,-0.367 0.394,-0.353 0.402,-0.335C0.409,-0.318 0.413,-0.297 0.413,-0.274C0.413,-0.251 0.409,-0.23 0.401,-0.212C0.394,-0.194 0.383,-0.181 0.369,-0.171C0.355,-0.161 0.339,-0.156 0.321,-0.156Z" style="fill: #12354a; fill-rule: nonzero"></path>
            </g>
            <g transform="matrix(85.0677,0,0,85.0677,240.582,60.9347)">
                <path d="M0.02,-0.274C0.02,-0.217 0.032,-0.166 0.057,-0.123C0.081,-0.079 0.116,-0.045 0.16,-0.021C0.205,0.003 0.256,0.015 0.314,0.015C0.372,0.015 0.423,0.003 0.468,-0.021C0.512,-0.045 0.546,-0.08 0.571,-0.123C0.596,-0.167 0.608,-0.218 0.608,-0.275C0.608,-0.332 0.596,-0.383 0.571,-0.426C0.546,-0.47 0.512,-0.504 0.468,-0.528C0.423,-0.552 0.372,-0.564 0.314,-0.564C0.256,-0.564 0.205,-0.552 0.161,-0.528C0.116,-0.504 0.082,-0.47 0.057,-0.426C0.032,-0.382 0.02,-0.332 0.02,-0.274ZM0.386,-0.354C0.404,-0.334 0.413,-0.308 0.413,-0.275C0.413,-0.254 0.409,-0.235 0.401,-0.218C0.392,-0.201 0.381,-0.188 0.365,-0.179C0.35,-0.17 0.333,-0.165 0.314,-0.165C0.295,-0.165 0.278,-0.17 0.262,-0.179C0.247,-0.188 0.236,-0.201 0.227,-0.217C0.219,-0.234 0.215,-0.253 0.215,-0.274C0.215,-0.296 0.219,-0.315 0.227,-0.332C0.236,-0.348 0.247,-0.361 0.262,-0.37C0.278,-0.379 0.295,-0.384 0.314,-0.384C0.343,-0.384 0.367,-0.374 0.386,-0.354Z" style="fill: #12354a; fill-rule: nonzero"></path>
            </g>
            <g transform="matrix(85.0677,0,0,85.0677,293.999,60.9347)">
                <path d="M0.02,-0.274C0.02,-0.217 0.032,-0.166 0.057,-0.123C0.081,-0.079 0.116,-0.045 0.16,-0.021C0.205,0.003 0.256,0.015 0.314,0.015C0.372,0.015 0.423,0.003 0.468,-0.021C0.512,-0.045 0.546,-0.08 0.571,-0.123C0.596,-0.167 0.608,-0.218 0.608,-0.275C0.608,-0.332 0.596,-0.383 0.571,-0.426C0.546,-0.47 0.512,-0.504 0.468,-0.528C0.423,-0.552 0.372,-0.564 0.314,-0.564C0.256,-0.564 0.205,-0.552 0.161,-0.528C0.116,-0.504 0.082,-0.47 0.057,-0.426C0.032,-0.382 0.02,-0.332 0.02,-0.274ZM0.386,-0.354C0.404,-0.334 0.413,-0.308 0.413,-0.275C0.413,-0.254 0.409,-0.235 0.401,-0.218C0.392,-0.201 0.381,-0.188 0.365,-0.179C0.35,-0.17 0.333,-0.165 0.314,-0.165C0.295,-0.165 0.278,-0.17 0.262,-0.179C0.247,-0.188 0.236,-0.201 0.227,-0.217C0.219,-0.234 0.215,-0.253 0.215,-0.274C0.215,-0.296 0.219,-0.315 0.227,-0.332C0.236,-0.348 0.247,-0.361 0.262,-0.37C0.278,-0.379 0.295,-0.384 0.314,-0.384C0.343,-0.384 0.367,-0.374 0.386,-0.354Z" style="fill: #12354a; fill-rule: nonzero"></path>
            </g>
            <g transform="matrix(85.0677,0,0,85.0677,347.415,60.9347)">
                <path d="M0.051,-0.725C0.047,-0.725 0.043,-0.724 0.041,-0.72C0.038,-0.717 0.036,-0.714 0.036,-0.711L0.036,-0.015C0.036,-0.011 0.038,-0.007 0.041,-0.004C0.043,-0.001 0.047,-0 0.051,-0L0.227,-0C0.231,-0 0.234,-0.002 0.238,-0.005C0.241,-0.008 0.242,-0.011 0.242,-0.015L0.242,-0.21L0.357,-0.012C0.361,-0.004 0.368,-0 0.378,-0L0.591,-0C0.594,-0 0.596,-0.001 0.598,-0.002C0.6,-0.003 0.601,-0.005 0.601,-0.007C0.601,-0.008 0.6,-0.01 0.598,-0.012L0.417,-0.293L0.565,-0.538C0.567,-0.541 0.567,-0.543 0.567,-0.544C0.567,-0.548 0.564,-0.55 0.558,-0.55L0.358,-0.55C0.347,-0.55 0.34,-0.547 0.335,-0.538L0.242,-0.379L0.242,-0.711C0.242,-0.714 0.241,-0.717 0.238,-0.72C0.234,-0.724 0.231,-0.725 0.227,-0.725L0.051,-0.725Z" style="fill: #12354a; fill-rule: nonzero"></path>
            </g>
            <g transform="matrix(85.0677,0,0,85.0677,399.295,60.9347)">
                <path d="M0.352,-0.564C0.32,-0.564 0.289,-0.559 0.259,-0.549C0.229,-0.538 0.206,-0.525 0.191,-0.508L0.178,-0.54C0.176,-0.547 0.17,-0.55 0.162,-0.55L0.05,-0.55C0.041,-0.55 0.036,-0.546 0.036,-0.536L0.036,-0.015C0.036,-0.011 0.038,-0.007 0.041,-0.004C0.043,-0.001 0.047,-0 0.051,-0L0.227,-0C0.231,-0 0.234,-0.002 0.238,-0.005C0.241,-0.008 0.242,-0.011 0.242,-0.015L0.242,-0.321L0.246,-0.335C0.249,-0.346 0.256,-0.355 0.268,-0.364C0.279,-0.373 0.292,-0.377 0.308,-0.377C0.341,-0.377 0.357,-0.356 0.357,-0.314L0.357,-0.015C0.356,-0.011 0.358,-0.008 0.361,-0.005C0.364,-0.002 0.367,-0 0.371,-0L0.547,-0C0.551,-0 0.555,-0.002 0.558,-0.005C0.561,-0.008 0.562,-0.011 0.562,-0.015L0.562,-0.345C0.562,-0.42 0.545,-0.476 0.51,-0.511C0.475,-0.546 0.423,-0.564 0.352,-0.564Z" style="fill: #5cf29d; fill-rule: nonzero"></path>
            </g>
            <g transform="matrix(85.0677,0,0,85.0677,449.638,60.9347)">
                <path d="M0.522,-0.041C0.528,-0.046 0.531,-0.051 0.529,-0.056L0.486,-0.18C0.484,-0.186 0.481,-0.189 0.477,-0.189C0.475,-0.189 0.473,-0.189 0.471,-0.188C0.423,-0.166 0.372,-0.155 0.318,-0.155C0.293,-0.155 0.273,-0.162 0.257,-0.175C0.242,-0.189 0.234,-0.206 0.234,-0.228L0.545,-0.228C0.555,-0.228 0.56,-0.233 0.561,-0.242C0.563,-0.262 0.564,-0.282 0.564,-0.303C0.564,-0.361 0.554,-0.409 0.532,-0.448C0.511,-0.487 0.481,-0.516 0.442,-0.535C0.404,-0.554 0.359,-0.564 0.308,-0.564C0.252,-0.564 0.202,-0.552 0.158,-0.528C0.115,-0.503 0.081,-0.469 0.056,-0.425C0.032,-0.381 0.02,-0.331 0.02,-0.274C0.02,-0.217 0.032,-0.167 0.057,-0.123C0.081,-0.079 0.116,-0.045 0.159,-0.021C0.203,0.003 0.253,0.015 0.31,0.015C0.395,0.015 0.466,-0.004 0.522,-0.041ZM0.233,-0.331C0.233,-0.353 0.24,-0.37 0.253,-0.384C0.267,-0.397 0.284,-0.403 0.306,-0.403C0.327,-0.403 0.344,-0.397 0.356,-0.384C0.369,-0.37 0.375,-0.353 0.375,-0.331L0.233,-0.331Z" style="fill: #5cf29d; fill-rule: nonzero"></path>
            </g>
            <g transform="matrix(85.0677,0,0,85.0677,500.147,60.9347)">
                <path d="M0.327,-0.55C0.272,-0.55 0.228,-0.53 0.195,-0.49L0.18,-0.535C0.176,-0.545 0.171,-0.55 0.164,-0.55L0.051,-0.55C0.047,-0.55 0.043,-0.548 0.041,-0.545C0.038,-0.542 0.036,-0.539 0.036,-0.536L0.036,-0.015C0.036,-0.011 0.038,-0.007 0.041,-0.004C0.043,-0.001 0.047,-0 0.051,-0L0.227,-0C0.231,-0 0.234,-0.002 0.238,-0.005C0.241,-0.008 0.242,-0.011 0.242,-0.015L0.242,-0.35C0.249,-0.363 0.26,-0.373 0.276,-0.381C0.291,-0.388 0.309,-0.392 0.327,-0.392L0.353,-0.392C0.362,-0.391 0.367,-0.396 0.367,-0.406L0.367,-0.536C0.367,-0.545 0.362,-0.55 0.353,-0.55L0.327,-0.55Z" style="fill: #5cf29d; fill-rule: nonzero"></path>
            </g>
            <g transform="matrix(85.0677,0,0,85.0677,529.638,60.9347)">
                <path d="M0.421,-0.725C0.417,-0.725 0.413,-0.724 0.41,-0.721C0.407,-0.717 0.405,-0.714 0.406,-0.711L0.406,-0.526C0.374,-0.551 0.334,-0.564 0.284,-0.564C0.231,-0.564 0.185,-0.552 0.145,-0.528C0.105,-0.504 0.075,-0.47 0.053,-0.426C0.031,-0.383 0.02,-0.332 0.02,-0.275C0.02,-0.218 0.031,-0.167 0.053,-0.124C0.075,-0.08 0.105,-0.045 0.145,-0.021C0.184,0.003 0.228,0.015 0.277,0.015C0.352,0.015 0.411,-0.007 0.453,-0.051L0.468,-0.015C0.473,-0.005 0.478,-0 0.484,-0L0.597,-0C0.601,-0 0.604,-0.002 0.607,-0.005C0.61,-0.008 0.612,-0.011 0.612,-0.015L0.612,-0.711C0.612,-0.715 0.61,-0.718 0.607,-0.721C0.604,-0.724 0.601,-0.725 0.597,-0.725L0.421,-0.725ZM0.327,-0.392C0.345,-0.392 0.361,-0.387 0.375,-0.377C0.39,-0.367 0.4,-0.354 0.406,-0.337L0.406,-0.211C0.4,-0.194 0.39,-0.181 0.375,-0.171C0.36,-0.161 0.344,-0.156 0.326,-0.156C0.308,-0.156 0.292,-0.161 0.279,-0.171C0.265,-0.181 0.254,-0.195 0.247,-0.213C0.239,-0.231 0.235,-0.251 0.235,-0.274C0.235,-0.298 0.239,-0.318 0.247,-0.336C0.254,-0.354 0.265,-0.368 0.279,-0.377C0.293,-0.387 0.309,-0.392 0.327,-0.392Z" style="fill: #5cf29d; fill-rule: nonzero"></path>
            </g>
            <g transform="matrix(85.0677,0,0,85.0677,584.758,60.9347)">
                <path d="M0.454,-0.164C0.454,-0.2 0.447,-0.23 0.432,-0.254C0.418,-0.277 0.402,-0.294 0.383,-0.306C0.363,-0.319 0.34,-0.33 0.312,-0.34C0.292,-0.347 0.274,-0.355 0.257,-0.363C0.25,-0.366 0.245,-0.37 0.241,-0.376C0.237,-0.382 0.235,-0.387 0.235,-0.392C0.235,-0.399 0.238,-0.404 0.244,-0.407C0.25,-0.411 0.259,-0.413 0.27,-0.412C0.304,-0.412 0.342,-0.398 0.385,-0.371C0.387,-0.37 0.389,-0.369 0.391,-0.369C0.394,-0.369 0.396,-0.371 0.398,-0.375L0.449,-0.493C0.45,-0.494 0.45,-0.495 0.45,-0.496C0.45,-0.5 0.447,-0.503 0.443,-0.507C0.417,-0.524 0.385,-0.538 0.349,-0.548C0.313,-0.559 0.279,-0.564 0.246,-0.564C0.201,-0.564 0.162,-0.556 0.127,-0.542C0.093,-0.527 0.067,-0.505 0.048,-0.478C0.029,-0.451 0.02,-0.42 0.02,-0.385C0.02,-0.35 0.028,-0.32 0.042,-0.295C0.056,-0.273 0.073,-0.255 0.093,-0.242C0.112,-0.23 0.135,-0.219 0.162,-0.209C0.185,-0.201 0.203,-0.193 0.216,-0.187C0.231,-0.179 0.239,-0.171 0.239,-0.163C0.239,-0.154 0.236,-0.148 0.229,-0.143C0.222,-0.139 0.214,-0.137 0.204,-0.137C0.174,-0.137 0.135,-0.151 0.089,-0.178C0.086,-0.18 0.084,-0.18 0.083,-0.18C0.08,-0.18 0.078,-0.178 0.076,-0.174L0.025,-0.058C0.025,-0.057 0.024,-0.056 0.024,-0.054C0.024,-0.05 0.027,-0.046 0.031,-0.042C0.059,-0.025 0.091,-0.011 0.128,-0C0.166,0.01 0.2,0.015 0.233,0.015C0.277,0.015 0.316,0.008 0.349,-0.007C0.382,-0.022 0.408,-0.043 0.427,-0.071C0.445,-0.098 0.454,-0.129 0.454,-0.164Z" style="fill: #5cf29d; fill-rule: nonzero"></path>
            </g>
        </g>
        <g transform="matrix(0.500051,0,0,0.500051,1762.33,133.648)">
            <g transform="matrix(837.628,0,0,837.628,0,600)">
                <path d="M0.352,-0.564C0.32,-0.564 0.289,-0.559 0.259,-0.549C0.229,-0.538 0.206,-0.525 0.191,-0.508L0.178,-0.54C0.176,-0.547 0.17,-0.55 0.162,-0.55L0.05,-0.55C0.041,-0.55 0.036,-0.546 0.036,-0.536L0.036,-0.015C0.036,-0.011 0.038,-0.007 0.041,-0.004C0.043,-0.001 0.047,-0 0.051,-0L0.227,-0C0.231,-0 0.234,-0.002 0.238,-0.005C0.241,-0.008 0.242,-0.011 0.242,-0.015L0.242,-0.321L0.246,-0.335C0.249,-0.346 0.256,-0.355 0.268,-0.364C0.279,-0.373 0.292,-0.377 0.308,-0.377C0.341,-0.377 0.357,-0.356 0.357,-0.314L0.357,-0.015C0.356,-0.011 0.358,-0.008 0.361,-0.005C0.364,-0.002 0.367,-0 0.371,-0L0.547,-0C0.551,-0 0.555,-0.002 0.558,-0.005C0.561,-0.008 0.562,-0.011 0.562,-0.015L0.562,-0.345C0.562,-0.42 0.545,-0.476 0.51,-0.511C0.475,-0.546 0.423,-0.564 0.352,-0.564Z" style="fill: #12354a; fill-rule: nonzero"></path>
            </g>
            <g transform="matrix(837.628,0,0,837.628,495.706,600)">
                <path d="M0.352,-0.564C0.32,-0.564 0.289,-0.559 0.259,-0.549C0.229,-0.538 0.206,-0.525 0.191,-0.508L0.178,-0.54C0.176,-0.547 0.17,-0.55 0.162,-0.55L0.05,-0.55C0.041,-0.55 0.036,-0.546 0.036,-0.536L0.036,-0.015C0.036,-0.011 0.038,-0.007 0.041,-0.004C0.043,-0.001 0.047,-0 0.051,-0L0.227,-0C0.231,-0 0.234,-0.002 0.238,-0.005C0.241,-0.008 0.242,-0.011 0.242,-0.015L0.242,-0.321L0.246,-0.335C0.249,-0.346 0.256,-0.355 0.268,-0.364C0.279,-0.373 0.292,-0.377 0.308,-0.377C0.341,-0.377 0.357,-0.356 0.357,-0.314L0.357,-0.015C0.356,-0.011 0.358,-0.008 0.361,-0.005C0.364,-0.002 0.367,-0 0.371,-0L0.547,-0C0.551,-0 0.555,-0.002 0.558,-0.005C0.561,-0.008 0.562,-0.011 0.562,-0.015L0.562,-0.345C0.562,-0.42 0.545,-0.476 0.51,-0.511C0.475,-0.546 0.423,-0.564 0.352,-0.564Z" style="fill: #5cf29d; fill-rule: nonzero"></path>
            </g>
        </g>
    </g>
</svg>
